<mxfile host="app.diagrams.net" modified="2021-03-20T13:39:38.586Z" agent="5.0 (Windows NT 10.0; Win64; x64) AppleWebKit/537.36 (KHTML, like Gecko) Chrome/88.0.4324.190 Safari/537.36" etag="eG_MAN9kBCoxRFVr-5gF" version="14.4.5" type="github">
  <diagram id="XVSg72qTm4of0Ti5cNCW" name="Page-1">
    <mxGraphModel dx="1422" dy="706" grid="1" gridSize="10" guides="1" tooltips="1" connect="1" arrows="1" fold="1" page="1" pageScale="1" pageWidth="827" pageHeight="1169" math="0" shadow="0">
      <root>
        <mxCell id="0" />
        <mxCell id="1" parent="0" />
        <mxCell id="zvZMFLr6r-92r_LPp2Ux-1" value="PREAMBLE" style="rounded=0;whiteSpace=wrap;html=1;" vertex="1" parent="1">
          <mxGeometry x="90" y="260" width="120" height="30" as="geometry" />
        </mxCell>
        <mxCell id="zvZMFLr6r-92r_LPp2Ux-2" value="SFD" style="rounded=0;whiteSpace=wrap;html=1;" vertex="1" parent="1">
          <mxGeometry x="210" y="260" width="30" height="30" as="geometry" />
        </mxCell>
        <mxCell id="zvZMFLr6r-92r_LPp2Ux-3" value="Destination" style="rounded=0;whiteSpace=wrap;html=1;" vertex="1" parent="1">
          <mxGeometry x="240" y="260" width="90" height="30" as="geometry" />
        </mxCell>
        <mxCell id="zvZMFLr6r-92r_LPp2Ux-4" value="Source" style="rounded=0;whiteSpace=wrap;html=1;" vertex="1" parent="1">
          <mxGeometry x="330" y="260" width="90" height="30" as="geometry" />
        </mxCell>
        <mxCell id="zvZMFLr6r-92r_LPp2Ux-5" value="TPID" style="rounded=0;whiteSpace=wrap;html=1;" vertex="1" parent="1">
          <mxGeometry x="420" y="260" width="40" height="30" as="geometry" />
        </mxCell>
        <mxCell id="zvZMFLr6r-92r_LPp2Ux-6" value="PRIORITY" style="rounded=0;whiteSpace=wrap;html=1;" vertex="1" parent="1">
          <mxGeometry x="460" y="230" width="70" height="30" as="geometry" />
        </mxCell>
        <mxCell id="zvZMFLr6r-92r_LPp2Ux-7" value="CFI" style="rounded=0;whiteSpace=wrap;html=1;" vertex="1" parent="1">
          <mxGeometry x="520" y="260" width="50" height="30" as="geometry" />
        </mxCell>
        <mxCell id="zvZMFLr6r-92r_LPp2Ux-8" value="VLANID" style="rounded=0;whiteSpace=wrap;html=1;" vertex="1" parent="1">
          <mxGeometry x="630" y="260" width="50" height="30" as="geometry" />
        </mxCell>
        <mxCell id="zvZMFLr6r-92r_LPp2Ux-9" value="Lenth/Type" style="rounded=0;whiteSpace=wrap;html=1;" vertex="1" parent="1">
          <mxGeometry x="700" y="260" width="70" height="30" as="geometry" />
        </mxCell>
        <mxCell id="zvZMFLr6r-92r_LPp2Ux-10" value="data" style="rounded=0;whiteSpace=wrap;html=1;" vertex="1" parent="1">
          <mxGeometry x="680" y="440" width="70" height="30" as="geometry" />
        </mxCell>
        <mxCell id="zvZMFLr6r-92r_LPp2Ux-11" value="FCS" style="rounded=0;whiteSpace=wrap;html=1;" vertex="1" parent="1">
          <mxGeometry x="680" y="520" width="70" height="30" as="geometry" />
        </mxCell>
      </root>
    </mxGraphModel>
  </diagram>
</mxfile>
